<?xml version="1.0" encoding="UTF-8" standalone="no"?>
<svg
   width="18"
   height="18"
   viewBox="0 0 18 18"
   fill="none"
   version="1.1"
   id="svg2"
   sodipodi:docname="account.svg"
   inkscape:version="1.4.2 (ebf0e940d0, 2025-05-08)"
   xmlns:inkscape="http://www.inkscape.org/namespaces/inkscape"
   xmlns:sodipodi="http://sodipodi.sourceforge.net/DTD/sodipodi-0.dtd"
   xmlns="http://www.w3.org/2000/svg"
   xmlns:svg="http://www.w3.org/2000/svg">
  <defs
     id="defs2" />
  <sodipodi:namedview
     id="namedview2"
     pagecolor="#ffffff"
     bordercolor="#000000"
     borderopacity="0.25"
     inkscape:showpageshadow="2"
     inkscape:pageopacity="0.0"
     inkscape:pagecheckerboard="0"
     inkscape:deskcolor="#d1d1d1"
     inkscape:zoom="64.111111"
     inkscape:cx="9"
     inkscape:cy="9"
     inkscape:window-width="3440"
     inkscape:window-height="1355"
     inkscape:window-x="0"
     inkscape:window-y="0"
     inkscape:window-maximized="1"
     inkscape:current-layer="svg2" />
  <path
     fill-rule="evenodd"
     clip-rule="evenodd"
     d="M13 4C13 6.20914 11.2091 8 9 8C6.79086 8 5 6.20914 5 4C5 1.79086 6.79086 0 9 0C11.2091 0 13 1.79086 13 4ZM11 4C11 5.10457 10.1046 6 9 6C7.89543 6 7 5.10457 7 4C7 2.89543 7.89543 2 9 2C10.1046 2 11 2.89543 11 4Z"
     fill="#44F1A6"
     id="path1"
     style="fill:#37eaff;fill-opacity:1" />
  <path
     fill-rule="evenodd"
     clip-rule="evenodd"
     d="M9 8H6C2.68629 8 0 10.6863 0 14V16C0 17.1046 0.89543 18 2 18H16C17.1046 18 18 17.1046 18 16V14C18 10.6863 15.3137 8 12 8H9ZM2 14C2 11.7909 3.79086 10 6 10H12C14.2091 10 16 11.7909 16 14V16H2L2 14Z"
     fill="#44F1A6"
     id="path2"
     style="fill:#37eaff;fill-opacity:1" />
</svg>
