<?xml version="1.0" encoding="UTF-8" standalone="no"?>
<svg
   width="13"
   height="18"
   viewBox="0 0 13 18"
   fill="none"
   version="1.1"
   id="svg1"
   sodipodi:docname="arrow-down.svg"
   inkscape:version="1.4.2 (ebf0e940d0, 2025-05-08)"
   xmlns:inkscape="http://www.inkscape.org/namespaces/inkscape"
   xmlns:sodipodi="http://sodipodi.sourceforge.net/DTD/sodipodi-0.dtd"
   xmlns="http://www.w3.org/2000/svg"
   xmlns:svg="http://www.w3.org/2000/svg">
  <defs
     id="defs1" />
  <sodipodi:namedview
     id="namedview1"
     pagecolor="#ffffff"
     bordercolor="#000000"
     borderopacity="0.25"
     inkscape:showpageshadow="2"
     inkscape:pageopacity="0.0"
     inkscape:pagecheckerboard="0"
     inkscape:deskcolor="#d1d1d1"
     inkscape:zoom="64.111111"
     inkscape:cx="6.5043328"
     inkscape:cy="9"
     inkscape:window-width="3440"
     inkscape:window-height="1355"
     inkscape:window-x="0"
     inkscape:window-y="0"
     inkscape:window-maximized="1"
     inkscape:current-layer="svg1" />
  <path
     fill-rule="evenodd"
     clip-rule="evenodd"
     d="M10.3057 11.3047L7.02586 14.586V1C7.02586 0.447716 6.57815 0 6.02586 0C5.47358 0 5.02586 0.447716 5.02586 1V14.5616L1.71953 11.2537C1.3291 10.8631 0.695354 10.8638 0.304921 11.2544C-0.0855112 11.645 -0.0862427 12.2791 0.30419 12.6697L5.20862 17.5764C5.38969 17.8327 5.68824 18 6.02586 18C6.23733 18 6.43347 17.9344 6.59501 17.8223C6.6482 17.7866 6.69872 17.7453 6.74572 17.6982C6.76367 17.6803 6.78079 17.6618 6.79709 17.6429L11.719 12.7187C12.1093 12.3282 12.1093 11.6951 11.719 11.3047C11.3287 10.9142 10.6959 10.9142 10.3057 11.3047Z"
     fill="#44F1A6"
     id="path1"
     style="fill:#37eaff;fill-opacity:1" />
</svg>
