<?xml version="1.0" encoding="UTF-8" standalone="no"?>
<!-- Created with Inkscape (http://www.inkscape.org/) -->

<svg
   width="60"
   height="60"
   viewBox="0 0 15.875 15.875"
   version="1.1"
   id="svg1"
   xml:space="preserve"
   sodipodi:docname="logo.svg"
   inkscape:version="1.4.2 (ebf0e940d0, 2025-05-08)"
   xmlns:inkscape="http://www.inkscape.org/namespaces/inkscape"
   xmlns:sodipodi="http://sodipodi.sourceforge.net/DTD/sodipodi-0.dtd"
   xmlns="http://www.w3.org/2000/svg"
   xmlns:svg="http://www.w3.org/2000/svg"><sodipodi:namedview
     id="namedview1"
     pagecolor="#ffffff"
     bordercolor="#000000"
     borderopacity="0.25"
     inkscape:showpageshadow="2"
     inkscape:pageopacity="0.0"
     inkscape:pagecheckerboard="0"
     inkscape:deskcolor="#d1d1d1"
     inkscape:document-units="mm"
     showgrid="false"
     inkscape:zoom="10.904613"
     inkscape:cx="14.305872"
     inkscape:cy="38.424105"
     inkscape:window-width="3440"
     inkscape:window-height="1355"
     inkscape:window-x="0"
     inkscape:window-y="0"
     inkscape:window-maximized="1"
     inkscape:current-layer="svg1" /><defs
     id="defs1" /><g
     id="layer2"
     style="display:inline"
     transform="matrix(1.1446268,0,0,1.1446268,-1.355609,-1.6858183)"><g
       id="g3"
       transform="matrix(0.33679585,0,0,0.33679585,-2.1803432,-18.738163)"><path
         d="m 11.499734,73.762644 h 0.09248 c 3.503257,-5.149984 8.248977,-9.35285 14.704849,-9.794957 8.580557,-0.587611 16.395988,7.941549 14.160652,16.453759 -0.882034,3.3588 -3.337646,6.388698 -6.761985,7.359054 -4.483858,1.270597 -9.892457,-1.952157 -9.895717,-6.89664 -0.841077,1.124146 -0.861923,3.109932 -0.672432,4.4392 0.581614,4.079992 3.669207,7.596758 7.516198,8.999073 8.024893,2.925255 16.02301,-2.306737 18.709823,-10.016387 3.480312,-9.986529 -4.022873,-20.892389 -13.715722,-23.476418 -7.355562,-1.96093 -15.551911,0.498497 -20.461582,6.367 -1.549071,1.851598 -3.111646,4.182432 -3.676567,6.566316 m 38.288098,13.595049 h -0.09248 c -3.32708,4.890939 -7.676867,9.285624 -13.872497,9.880013 -8.980746,0.861588 -17.309329,-7.411287 -14.875475,-16.53881 0.935841,-3.509621 3.485937,-6.434851 7.106875,-7.244668 4.221697,-0.944173 9.522717,2.252707 9.525782,6.874733 0.760666,-0.862883 0.741606,-2.624736 0.655303,-3.699333 -0.317225,-3.949858 -2.929229,-7.276176 -6.389271,-9.053376 -7.005194,-3.598122 -15.099726,-0.0522 -18.786889,6.556326 -5.1777537,9.280123 0.324691,21.278375 9.723523,25.300896 7.861619,3.364626 17.335449,1.421176 22.96091,-5.139532 1.686146,-1.966471 3.351929,-4.405077 4.044224,-6.936249"
         style="fill:#37eaff;fill-opacity:1;stroke:none;stroke-width:0.349543"
         id="path1-6" /></g></g></svg>
