<?xml version="1.0" encoding="UTF-8" standalone="no"?>
<!-- Created with Inkscape (http://www.inkscape.org/) -->

<svg
   width="64.420685mm"
   height="12.331731mm"
   viewBox="0 0 64.420685 12.331731"
   version="1.1"
   id="svg1"
   xml:space="preserve"
   xmlns="http://www.w3.org/2000/svg"
   xmlns:svg="http://www.w3.org/2000/svg"><defs
     id="defs1" /><g
     id="layer2"
     style="display:inline"
     transform="translate(-1.1561544,-1.4145381)"><g
       id="g3"
       transform="matrix(0.33679585,0,0,0.33679585,-2.1803432,-18.738163)"><path
         style="font-size:114.667px;font-family:'Glitch Goblin';-inkscape-font-specification:'Glitch Goblin';white-space:pre;display:inline;fill:#37eaff;fill-opacity:1;stroke:none;stroke-width:6.133;stroke-linecap:square;stroke-miterlimit:1.6;paint-order:markers stroke fill"
         d="m 277.35761,314.14233 3.02345,-14.16541 -8.34248,14.16541 z m -16.06906,0.67187 0.44792,-0.67187 h -0.50391 z m -21.16412,-0.67187 -2.23959,-14.16541 -3.02345,14.16541 z m 44.90377,24.18757 h -14.66931 l 2.01563,-9.46227 h 7.22268 l 3.13542,-14.7253 h -5.26303 l -8.67841,14.7253 h -7.22268 l -5.54298,9.46227 h -13.77348 l -1.51173,-9.46227 h 7.22268 l -2.40756,-14.7253 h -5.31902 l -3.13543,14.7253 h -7.22268 l -2.01563,9.46227 h -14.7253 l 2.01563,-9.46227 h 7.22268 l 3.13542,-14.7253 h -5.37501 l 6.5508,-30.73837 h -1.84766 l 3.47136,-16.57297 h 5.43101 l 2.1836,-10.07815 h 14.27738 l 1.56771,10.07815 h -5.431 l 2.7435,16.57297 h 1.79167 l 4.9271,30.73837 h 0.5039 l 18.08469,-30.73837 h -1.84766 l 9.68623,-16.57297 h 5.431 l 5.9909,-10.07815 h 14.16541 l -2.1836,10.07815 h -5.431 l -3.47137,16.57297 h 1.84766 l -6.5508,30.73837 h 5.37502 l -3.13543,14.7253 h -7.22268 z m 26.20321,0 h -14.66932 l 2.01563,-9.46227 h 7.22268 l 3.13543,-14.7253 h -5.43101 l 6.5508,-30.73837 h -1.79167 l 3.52735,-16.57297 h 5.37502 l 2.12761,-10.02216 h 14.66931 l -2.12761,10.02216 h -5.37501 l -3.52736,16.57297 h 1.79168 l -6.5508,30.73837 h 5.431 l -3.13542,14.7253 h -7.22268 z m 42.38424,0.95182 q -9.79821,0 -16.79692,-4.03126 -4.53517,-2.57553 -7.16669,-6.38283 h 7.22268 q -1.56772,-2.1836 -2.40756,-4.75913 l -2.01563,-6.5508 7.22267,-3.41537 h -5.431 l 7.22267,-3.41538 1.1198,3.41538 h 5.43101 l 0.95182,3.07943 q 1.00782,3.19142 4.98309,5.20705 4.25522,2.1836 10.02216,2.1836 4.81512,0 9.18232,-1.51172 4.3672,-1.56772 7.1107,-3.91929 2.79949,-2.35157 3.02345,-5.03907 h -5.43101 l 0.056,-0.67188 q 0,-1.6237 -1.17579,-3.13543 -1.73568,-2.40756 -5.431,-3.91928 -3.69532,-1.51172 -8.56643,-1.51172 -8.7344,0 -15.2852,-3.13543 -6.49481,-3.19141 -9.68623,-8.67841 -2.1836,-3.91928 -2.1836,-8.45445 l 0.056,-1.23177 h -1.84766 q 0.056,-1.51173 0.39193,-3.07944 1.51172,-7.05471 7.22268,-12.76566 l 0.83984,-0.72787 h 5.43101 q 5.20704,-4.9271 12.5417,-7.95054 7.89455,-3.13543 16.57296,-3.13543 9.74222,0 16.74094,4.03126 4.98309,2.79949 7.6146,7.05471 h -5.37501 q 1.17578,1.95964 1.90365,4.14324 l 2.01563,6.5508 -12.37373,5.87893 h 1.79167 l -2.07162,1.00781 -0.27995,-1.00781 h -1.79167 l -1.73568,-5.59898 q -1.06381,-3.07944 -5.20705,-5.20705 -4.08725,-2.12761 -9.74222,-2.12761 -4.92709,0 -9.29429,1.56772 -4.31121,1.51172 -7.1107,3.86329 -3.07944,2.57553 -3.07944,5.48699 0,1.06381 0.44792,2.01564 h 1.79167 q 1.34376,3.19141 6.21486,5.20704 3.69533,1.56771 8.62242,1.56771 8.67841,0 15.17323,3.19142 6.5508,3.19142 9.68622,8.62242 2.23959,3.91928 2.23959,8.45445 0,1.79167 -0.33594,3.69533 h 5.43101 q -1.34376,7.39064 -7.33466,13.38155 -0.72787,0.72786 -1.51172,1.34375 h -7.22268 q -5.03908,4.53517 -11.86983,7.27867 -7.83856,3.13542 -16.51697,3.13542 z m 101.06148,-0.95182 h -14.66931 l 2.01563,-9.46227 h 7.16669 l 3.07943,-14.7253 h -5.37501 l 1.95964,-9.23831 h -32.97796 l -1.95964,9.23831 h 5.431 l -3.07943,14.7253 h -7.22268 l -2.01563,9.46227 h -14.72531 l 2.01564,-9.46227 h 7.22267 l 3.07944,-14.7253 h -5.43101 l 6.5508,-30.73837 h -1.79167 l 3.52736,-16.57297 h 5.431 l 2.12761,-10.02216 h 14.72531 l -2.12762,10.02216 h -5.431 l -3.52735,16.57297 h 1.79167 l -1.45574,6.83074 h 32.97796 l 1.45574,-6.83074 h -1.79167 l 3.52735,-16.57297 h 5.37502 l 2.12761,-10.02216 h 14.66931 l -2.12761,10.02216 h -5.37502 l -3.52735,16.57297 h 1.79167 l -6.5508,30.73837 h 5.37502 l -3.07944,14.7253 h -7.16669 z m 71.83485,-24.18757 3.02345,-14.16541 -8.34247,14.16541 z m -16.06906,0.67187 0.44792,-0.67187 h -0.5039 z m -21.16412,-0.67187 -2.23959,-14.16541 -3.02345,14.16541 z m 44.90378,24.18757 h -14.66932 l 2.01563,-9.46227 h 7.22268 l 3.13543,-14.7253 h -5.26304 l -8.67841,14.7253 h -7.22268 l -5.54298,9.46227 h -13.77348 l -1.51172,-9.46227 h 7.22268 l -2.40756,-14.7253 h -5.31903 l -3.13543,14.7253 h -7.22267 l -2.01563,9.46227 h -14.72531 l 2.01563,-9.46227 h 7.22268 l 3.13543,-14.7253 h -5.37502 l 6.5508,-30.73837 h -1.84766 l 3.47136,-16.57297 h 5.43101 l 2.1836,-10.07815 h 14.27739 l 1.56771,10.07815 h -5.43101 l 2.7435,16.57297 h 1.79167 l 4.9271,30.73837 h 0.50391 l 18.08469,-30.73837 h -1.84767 l 9.68623,-16.57297 h 5.43101 l 5.9909,-10.07815 h 14.1654 l -2.1836,10.07815 h -5.431 l -3.47137,16.57297 h 1.84767 l -6.5508,30.73837 h 5.37501 l -3.13542,14.7253 h -7.22268 z m 58.67724,-33.81781 -3.47137,-21.10813 h -1.79167 l -0.50391,-3.07944 -1.79167,3.07944 h 1.79167 l -12.37373,21.10813 z m 19.31646,33.81781 h -15.62114 l -1.56771,-9.46227 h 7.22268 l -1.56772,-9.63024 h -29.17065 l -5.59898,9.63024 h -7.22268 l -5.54298,9.46227 h -15.73312 l 5.54298,-9.46227 h 7.22268 l 8.62242,-14.7253 h -5.431 l 18.08469,-30.73837 h -1.84767 l 9.74222,-16.57297 h 5.431 l 5.87893,-10.07815 h 13.77348 l 1.67969,10.07815 h -5.43101 l 2.68751,16.57297 h 1.79167 l 4.9271,30.73837 h 5.43101 l 2.40755,14.7253 h -7.22267 z m 30.45844,0.95182 q -9.7982,0 -16.79692,-4.03126 -4.53517,-2.57553 -7.16669,-6.38283 h 7.22268 q -1.56771,-2.1836 -2.40756,-4.75913 l -2.01563,-6.5508 7.22268,-3.41537 h -5.43101 l 7.22268,-3.41538 1.11979,3.41538 h 5.43101 l 0.95182,3.07943 q 1.00782,3.19142 4.98309,5.20705 4.25522,2.1836 10.02217,2.1836 4.81511,0 9.18231,-1.51172 4.3672,-1.56772 7.1107,-3.91929 2.79949,-2.35157 3.02345,-5.03907 h -5.43101 l 0.056,-0.67188 q 0,-1.6237 -1.17578,-3.13543 -1.73568,-2.40756 -5.43101,-3.91928 -3.69532,-1.51172 -8.56643,-1.51172 -8.7344,0 -15.2852,-3.13543 -6.49481,-3.19141 -9.68622,-8.67841 -2.1836,-3.91928 -2.1836,-8.45445 l 0.056,-1.23177 h -1.84766 q 0.056,-1.51173 0.39193,-3.07944 1.51172,-7.05471 7.22268,-12.76566 l 0.83984,-0.72787 h 5.43101 q 5.20705,-4.9271 12.5417,-7.95054 7.89456,-3.13543 16.57297,-3.13543 9.74221,0 16.74093,4.03126 4.98309,2.79949 7.61461,7.05471 H 684.795 q 1.17579,1.95964 1.90365,4.14324 l 2.01563,6.5508 -12.37373,5.87893 h 1.79167 l -2.07162,1.00781 -0.27995,-1.00781 h -1.79167 l -1.73568,-5.59898 q -1.06381,-3.07944 -5.20705,-5.20705 -4.08725,-2.12761 -9.74221,-2.12761 -4.9271,0 -9.2943,1.56772 -4.31121,1.51172 -7.1107,3.86329 -3.07943,2.57553 -3.07943,5.48699 0,1.06381 0.44791,2.01564 h 1.79168 q 1.34375,3.19141 6.21486,5.20704 3.69532,1.56771 8.62242,1.56771 8.67841,0 15.17322,3.19142 6.5508,3.19142 9.68622,8.62242 2.23959,3.91928 2.23959,8.45445 0,1.79167 -0.33593,3.69533 h 5.431 q -1.34375,7.39064 -7.33466,13.38155 -0.72786,0.72786 -1.51172,1.34375 h -7.22268 q -5.03907,4.53517 -11.86982,7.27867 -7.83857,3.13542 -16.51698,3.13542 z m 101.06149,-0.95182 h -14.66932 l 2.01563,-9.46227 h 7.16669 l 3.07944,-14.7253 h -5.37502 l 1.95964,-9.23831 h -32.97796 l -1.95964,9.23831 h 5.43101 l -3.07944,14.7253 h -7.22268 l -2.01563,9.46227 h -14.7253 l 2.01563,-9.46227 h 7.22268 l 3.07943,-14.7253 h -5.431 l 6.5508,-30.73837 h -1.79167 l 3.52735,-16.57297 h 5.431 l 2.12762,-10.02216 h 14.7253 l -2.12761,10.02216 h -5.43101 l -3.52735,16.57297 h 1.79167 l -1.45573,6.83074 h 32.97796 l 1.45573,-6.83074 h -1.79167 l 3.52735,-16.57297 h 5.37502 l 2.12761,-10.02216 h 14.66931 l -2.12761,10.02216 h -5.37501 l -3.52736,16.57297 h 1.79167 l -6.5508,30.73837 h 5.37502 l -3.07944,14.7253 h -7.16668 z"
         id="text1"
         transform="matrix(0.26458333,0,0,0.26458333,-1.5875,-0.52916667)"
         aria-label="MishMash" /><path
         d="m 10.294374,72.012055 h 0.08281 c 3.136961,-4.611508 7.386474,-8.374927 13.167327,-8.770808 7.683384,-0.526171 14.681643,7.11119 12.680031,14.733373 -0.78981,3.007608 -2.988666,5.720703 -6.05496,6.5896 -4.015031,1.137745 -8.858113,-1.748042 -8.861032,-6.175535 -0.753135,1.006606 -0.771801,2.784761 -0.602123,3.975042 0.520801,3.653393 3.285559,6.80245 6.730313,8.05814 7.185819,2.619394 14.347662,-2.065547 16.753545,-8.969085 C 47.3067,72.510433 40.588039,62.744877 31.908663,60.431031 25.32219,58.675134 17.982842,60.877406 13.586521,66.132305 c -1.387102,1.657997 -2.786296,3.745122 -3.29215,5.87975 M 44.57911,84.185621 H 44.4963 c -2.979204,4.379548 -6.874182,8.31473 -12.422004,8.84697 -8.04173,0.771502 -15.499486,-6.636371 -13.320113,-14.809531 0.837991,-3.142659 3.121452,-5.76203 6.363789,-6.487174 3.780281,-0.845451 8.527032,2.017167 8.529777,6.155919 0.681131,-0.772661 0.664064,-2.350296 0.586785,-3.312535 -0.284056,-3.536865 -2.622952,-6.515387 -5.721216,-8.106765 -6.272739,-3.221907 -13.520916,-0.04674 -16.822554,5.870804 -4.6363735,8.309804 0.290742,19.053533 8.706843,22.655463 7.039617,3.012822 15.522874,1.272583 20.560144,-4.602148 1.509844,-1.760859 3.001455,-3.944487 3.621364,-6.211003"
         style="fill:#37eaff;fill-opacity:1;stroke:none;stroke-width:0.312995"
         id="path1-6" /></g></g></svg>
