<?xml version="1.0" encoding="UTF-8" standalone="no"?>
<svg
   viewBox="0 0 215 214"
   class="verified"
   style=""
   version="1.1"
   id="svg7"
   xmlns="http://www.w3.org/2000/svg"
   xmlns:svg="http://www.w3.org/2000/svg">
  <defs
     id="defs7">
    <rect
       x="11.868284"
       y="8.3448873"
       width="348.07452"
       height="50.811092"
       id="rect8" />
  </defs>
  <style
     id="style1">
    .stroke {
      fill: none; 
      fill-rule: evenodd; 
      stroke: #37eaff;
    }
    .fill {
      fill: #37eaff; 
      fill-rule: evenodd; 
    }
</style>
  <path
     stroke-width="4"
     d="m 107,7 c 55.228,0 100,44.772 100,100 0,55.229 -44.772,100 -100,100 C 51.772,207 7,162.229 7,107 7,51.772 51.772,7 107,7 Z"
     class="stroke"
     id="path1" />
  <path
     stroke-width="2"
     d="m 107,53 c 29.823,0 54,24.177 54,54 0,29.823 -24.177,54 -54,54 -29.823,0 -54,-24.177 -54,-54 0,-29.823 24.177,-54 54,-54 z"
     class="stroke"
     id="path2" />
  <path
     d="m 83,29 c 3.314,0 6,2.686 6,6 0,3.314 -2.686,6 -6,6 -3.314,0 -6,-2.686 -6,-6 0,-3.314 2.686,-6 6,-6 z m 94,106 c 3.314,0 6,2.686 6,6 0,3.314 -2.686,6 -6,6 -3.314,0 -6,-2.686 -6,-6 0,-3.314 2.686,-6 6,-6 z"
     class="fill"
     id="path3" />
  <path
     d="m 61.272331,90.895181 h 0.219745 C 69.816472,78.657843 81.093191,68.671062 96.433565,67.620529 116.82256,66.224252 135.39348,86.49113 130.0819,106.71774 c -2.09586,7.98113 -7.93086,15.18074 -16.06774,17.48648 -10.65448,3.01917 -23.506328,-4.63868 -23.514062,-16.38769 -1.998561,2.67117 -2.048094,7.38977 -1.597824,10.54836 1.382018,9.69482 8.718715,18.05132 17.859896,21.38347 19.06865,6.95096 38.07366,-5.48122 44.45801,-23.80081 8.26987,-23.729847 -9.55909,-49.644204 -32.5911,-55.784357 -17.47818,-4.659529 -36.954264,1.184536 -48.620546,15.129185 -3.680877,4.399737 -7.393857,9.938251 -8.736203,15.602803 m 90.979659,32.304399 h -0.21974 c -7.90578,11.62176 -18.24168,22.06436 -32.96364,23.47673 -21.339926,2.04729 -41.130206,-17.6106 -35.346909,-39.29929 2.223726,-8.33953 8.283229,-15.290423 16.887269,-17.214707 10.03153,-2.243533 22.62775,5.352852 22.63503,16.335657 1.80747,-2.05037 1.7622,-6.23685 1.55713,-8.790299 -0.7538,-9.385609 -6.9604,-17.289567 -15.18209,-21.512523 -16.645672,-8.549811 -35.879785,-0.124038 -44.641192,15.57906 -12.303298,22.051312 0.771539,50.561402 23.104919,60.119652 18.680673,7.99498 41.192263,3.377 54.559413,-12.21248 4.00659,-4.6727 7.96481,-10.46728 9.60984,-16.4818"
     style="display:inline;fill:#37eaff;fill-opacity:1;stroke:none;stroke-width:0.830578"
     id="path1-6" />
  <g
     id="layer4"
     transform="rotate(-31.217749,107.7192,109.28589)">
    <path
       style="baseline-shift:baseline;display:inline;overflow:visible;opacity:1;fill:none;fill-opacity:1;stroke:none;stroke-width:0.684443;stroke-linecap:square;stroke-miterlimit:1.6;stroke-dasharray:none;stroke-opacity:1;paint-order:markers stroke fill;enable-background:accumulate;stop-color:#000000;stop-opacity:1"
       d="m 107.75755,173.53443 c -36.41817,0 -65.94833,-29.53017 -65.94833,-65.94833 0,-36.41817 29.53016,-65.946413 65.94833,-65.946413 36.41816,0 65.94642,29.528243 65.94642,65.946413 0,37.35067 -30.57259,65.94833 -65.94642,65.94833 z"
       id="path7" />
    <path
       style="font-size:29.3333px;font-family:'Tiresias Signfont Z';-inkscape-font-specification:'Tiresias Signfont Z';letter-spacing:-1.78px;white-space:pre;fill:#37eaff;stroke-width:0.7;stroke-linecap:square;stroke-miterlimit:1.6;paint-order:markers stroke fill"
       d="m 94.596043,193.99632 -2.288591,-11.95185 -6.745333,10.08921 -4.587101,-0.94578 2.146347,-21.33286 4.446823,0.91686 -1.432828,13.75841 5.696432,-8.47745 3.380708,0.69704 2.074987,10.07978 4.140203,-13.20019 4.25043,0.87637 -6.523032,20.43046 z m -20.149678,-25.91499 -2.168828,-1.10674 1.393199,-2.73018 8.305336,4.23819 -1.393199,2.73017 -2.168828,-1.10674 -6.907401,13.53604 2.168828,1.10674 -1.393198,2.73018 -8.305337,-4.23819 1.393199,-2.73017 2.168828,1.10674 z m -13.870793,-6.29165 q -0.936534,1.17671 -0.131466,2.87918 0.46543,0.95621 1.621791,2.70031 1.744604,2.615 2.030739,4.32548 0.392719,2.28957 -1.301961,4.41884 -1.739277,2.18531 -4.546871,2.0559 -2.644298,-0.12758 -5.177014,-2.14335 -3.014605,-2.39931 -4.1129,-5.96437 l 3.409984,-1.38646 q 0.955343,2.75567 3.107031,4.46818 2.353408,1.87307 3.74483,0.12483 0.954373,-1.19912 -0.343331,-3.11063 l -1.102384,-1.62791 q -2.701072,-4.03525 -2.258106,-6.68481 0.255902,-1.42553 1.397582,-2.85999 1.204115,-1.5129 3.030553,-1.94472 1.705682,-0.4181 3.648775,0.17651 1.922967,0.59689 3.660006,1.97939 3.317186,2.64014 4.42532,6.56083 l -3.483396,1.5477 q -1.031055,-3.51154 -3.249983,-5.27757 -1.087051,-0.86518 -2.208169,-1.04356 -1.358287,-0.20238 -2.16103,0.80622 z m -27.949197,-9.12532 17.252249,-12.53763 2.618673,3.60339 -7.496444,5.44785 3.763816,5.17915 7.496444,-5.44785 2.618673,3.60339 -17.252249,12.53763 -2.618673,-3.60339 6.882361,-5.00158 -3.763816,-5.17915 -6.882361,5.00158 z m -7.209585,-15.73293 9.446551,-7.67118 -12.079955,-1.16887 -1.337147,-4.48865 19.809445,-8.20265 1.296256,4.35139 -12.798876,5.24743 10.16374,1.0074 0.985482,3.30815 -7.898359,6.59724 13.58808,-2.59817 1.239009,4.15922 -21.085256,3.91989 z m 7.256982,-34.52778 -5.991039,1.78253 5.830306,2.25333 z m 3.479231,-0.97951 -0.249648,6.26846 5.758178,2.26479 -0.176122,4.42227 -21.00212,-8.57693 0.156743,-3.93567 21.61769,-6.879555 -0.185241,4.651255 z m 4.032319,-18.350201 q -1.435287,-0.449089 -2.732802,0.915832 -0.723982,0.778985 -1.933612,2.486565 -1.80975,2.570343 -3.301905,3.454149 -1.993816,1.192077 -4.591001,0.379441 -2.665533,-0.834022 -3.557465,-3.499315 -0.83474,-2.51233 0.131869,-5.601614 1.150523,-3.677068 4.079487,-5.987264 l 2.523038,2.680399 q -2.225614,1.88494 -3.046804,4.509465 -0.898178,2.870573 1.234249,3.537791 1.462625,0.457642 2.77742,-1.442147 l 1.120736,-1.615333 q 2.78943,-3.974681 5.420422,-4.517163 1.421874,-0.275475 3.171557,0.271985 1.845369,0.5774 2.906877,2.125156 1.005154,1.440077 1.151394,3.466843 0.136848,2.00882 -0.526092,4.127577 -1.266002,4.046142 -4.523117,6.493785 L 37.78967,92.169375 q 2.903301,-2.22818 3.750154,-4.934721 0.414873,-1.325932 0.176881,-2.435924 -0.301137,-1.339858 -1.531383,-1.724791 z m -1.504103,-29.378137 17.889696,11.609959 -2.424914,3.736531 -7.773427,-5.044757 -3.485327,5.370513 7.773427,5.044757 -2.424914,3.736531 -17.889695,-11.609958 2.424914,-3.736531 7.136655,4.631508 3.485326,-5.370513 -7.136655,-4.631508 z m 23.758907,5.926052 -3.278653,3.324526 -3.110369,-3.067452 3.278653,-3.324526 z m 2.085274,-26.559203 -0.06313,3.674754 q -2.204402,0.04637 -3.822832,1.205809 -2.282103,1.634894 -1.176389,5.318005 0.523576,1.739198 1.741405,3.439132 2.594141,3.621092 5.594972,3.973211 1.408833,0.171192 2.514955,-0.621231 1.548569,-1.109391 2.505612,-3.733111 l 3.343168,1.075917 q -1.055589,3.592891 -3.78014,5.544753 -3.376581,2.418974 -7.255689,1.480336 -3.875805,-0.958623 -6.761892,-4.987233 -2.735944,-3.81903 -2.385374,-7.928752 0.342228,-4.121365 3.590732,-6.448585 2.573187,-1.843425 5.954603,-1.993005 z m 18.334131,3.483923 -4.003118,-4.800521 0.231685,6.246301 z m 2.273613,2.809834 -5.857757,2.245573 0.192676,6.184559 -4.132527,1.584206 -0.412032,-22.682217 3.677816,-1.409892 14.855818,17.145186 -4.34651,1.666236 z m 18.462226,-3.513871 q -0.15281,-1.496122 -1.91857,-2.150823 -1.00124,-0.358455 -3.04731,-0.79736 -3.0755,-0.650507 -4.47577,-1.673679 -1.881276,-1.362774 -2.157786,-4.070041 -0.283787,-2.778511 1.814407,-4.648515 1.980141,-1.757165 5.200364,-2.086066 3.832915,-0.39148 7.110335,1.390196 l -1.46935,3.375095 q -2.60942,-1.302802 -5.345185,-1.023381 -2.992242,0.305616 -2.765213,2.528425 0.155719,1.524619 2.419885,1.984441 l 1.926253,0.393553 q 4.75226,0.997557 6.28757,3.201922 0.81346,1.198285 0.99974,3.022128 0.19647,1.923584 -0.80778,3.509089 -0.9275,1.491279 -2.73266,2.424317 -1.79237,0.917334 -4.00093,1.142908 -4.217633,0.430774 -7.750682,-1.598344 l 1.409144,-3.541715 q 3.191925,1.790409 6.013178,1.502256 1.38214,-0.141166 2.30854,-0.797284 1.1128,-0.804733 0.98182,-2.087122 z m 26.36023,-13.02137 -3.56666,21.026441 -4.39169,-0.744951 1.54979,-9.136405 -6.31217,-1.070718 -1.54979,9.136406 -4.39169,-0.744951 3.56667,-21.026442 4.39168,0.744951 -1.42283,8.387983 6.31217,1.070717 1.42283,-8.387982 z m 47.05966,31.418727 -9.47626,12.714944 15.29991,-4.186869 2.49585,3.654889 -21.97375,5.639755 -2.22123,-3.252733 13.25039,-18.414125 z m -1.35538,36.835299 -3.3478,1.187233 -4.29415,-12.108766 20.10029,-7.128184 4.29414,12.108766 -3.3478,1.187232 -2.80531,-7.91052 -4.67072,1.656381 2.32181,6.547103 -3.3478,1.187233 -2.32181,-6.547103 -5.38617,1.910105 z m 7.69529,13.270537 -9.04347,7.67275 -0.42656,-5.08108 8.45381,-7.163306 -0.0911,-1.084725 -8.9918,0.754866 -0.37264,-4.438808 21.25204,-1.78412 0.52481,6.25144 q 0.64943,7.735803 -5.57347,8.258213 -3.96781,0.3331 -5.73166,-3.38523 z m 7.61333,-6.388461 -5.29517,0.444532 0.11982,1.427269 q 0.30914,3.68236 2.86395,3.46788 2.74036,-0.23006 2.46118,-3.555595 z m -15.06148,20.840291 -0.31263,2.41474 -3.03973,-0.39354 1.19718,-9.24703 3.03973,0.39354 -0.31263,2.41474 15.07082,1.95115 0.31263,-2.41474 3.03973,0.39354 -1.19718,9.24703 -3.03973,-0.39354 0.31263,-2.41474 z m -5.23754,8.70415 1.40331,-4.2276 20.24083,6.71872 -4.04748,12.19343 -3.3712,-1.11903 2.64417,-7.96583 -4.70338,-1.56124 -2.18843,6.59289 -3.37121,-1.11904 2.18843,-6.59288 z m -3.79632,15.79962 -1.19575,2.12106 -2.67004,-1.50524 4.57901,-8.12241 2.67004,1.50524 -1.19575,2.12106 13.2379,7.46287 1.19575,-2.12106 2.67004,1.50524 -4.57901,8.1224 -2.67004,-1.50523 1.19575,-2.12106 z m -10.88727,14.78762 -2.69667,-2.31199 8.3623,-9.75365 16.19086,13.88122 -8.3623,9.75366 -2.69666,-2.31198 5.46299,-6.37196 -3.76228,-3.22559 -4.52142,5.27372 -2.69666,-2.31199 4.52142,-5.27371 -4.33859,-3.71969 z m -8.09965,14.81512 q 2.49589,3.60271 5.53058,3.78291 1.42766,0.0738 2.60501,-0.74183 l 1.63653,-1.13375 -8.09942,-11.69115 -1.63652,1.13376 q -2.37826,1.64761 -1.7431,4.9538 0.33662,1.7183 1.70692,3.69626 z m -2.11615,-11.48019 5.43939,-3.7683 12.14504,17.53083 -5.15682,3.57255 q -4.13252,2.86294 -7.97193,1.67206 -3.41635,-1.08322 -6.08353,-4.93318 -1.69655,-2.4489 -2.12858,-5.05945 -0.48465,-2.88772 0.69851,-5.38012 1.06819,-2.25594 3.05792,-3.63439 z"
       id="text8"
       transform="rotate(-20.498622,107.54588,107.78115)"
        />
  </g>
</svg>
